# xmcd
#
# Track frame offsets: 
#        150
#        3272
#        16510
#        31675
#        43835
#        58794
#        70369
#        91540
#        106206
#        110520
#        125313
#        134404
#        148282
#        163958
#        178760
#        202149
#        219252
#        239445
#        253011
#        262990
#        283437
#        305442
#
# Disc length: 4273 seconds
#
# Revision: 0
# Processed by: cddbd v1.5.2PL0 Copyright (c) Steve Scherf et al.
# Submitted via: ExactAudioCopy v0.99pb4
#
DISCID=4110af16
DTITLE=Pat Guadagno - Live At The City Lights Saloon
DYEAR=2003
DGENRE=
TTITLE0=Intro
TTITLE1=I Take My Chances
TTITLE2=King Of Fools
TTITLE3=Espn
TTITLE4=Bus Stop
TTITLE5=Six Words
TTITLE6=Three Verses Of Dixie
TTITLE7=This Town
TTITLE8=Intro
TTITLE9=When Rita Leaves
TTITLE10=Political Science
TTITLE11=Lone Star State Of Mind
TTITLE12=Through Your Hands
TTITLE13=Jump Startin'
TTITLE14=Oi' 55
TTITLE15=Because
TTITLE16=Chase The Buffalo
TTITLE17=All I Needed Was You
TTITLE18=You Don´t Have To Get Drunk
TTITLE19=Bo James
TTITLE20=All Along the Whatchtower
TTITLE21=Don´t Let Us Get Sick
EXTD=
EXTT0=
EXTT1=
EXTT2=
EXTT3=
EXTT4=
EXTT5=
EXTT6=
EXTT7=
EXTT8=
EXTT9=
EXTT10=
EXTT11=
EXTT12=
EXTT13=
EXTT14=
EXTT15=
EXTT16=
EXTT17=
EXTT18=
EXTT19=
EXTT20=
EXTT21=
PLAYORDER=
